<svg width="32" height="32" viewBox="0 0 32 32" fill="none" xmlns="http://www.w3.org/2000/svg">
<path d="M29.3337 21.2536C29.3337 24.9736 26.347 27.9869 22.627 28.0003H22.6137H9.40033C5.69366 28.0003 2.66699 25.0003 2.66699 21.2803V21.2669C2.66699 21.2669 2.67499 15.3656 2.68566 12.3976C2.68699 11.8403 3.32699 11.5283 3.76299 11.8749C6.93099 14.3883 12.5963 18.9709 12.667 19.0309C13.6137 19.7896 14.8137 20.2176 16.0403 20.2176C17.267 20.2176 18.467 19.7896 19.4137 19.0163C19.4843 18.9696 25.023 14.5243 28.239 11.9696C28.6763 11.6216 29.319 11.9336 29.3203 12.4896C29.3337 15.4349 29.3337 21.2536 29.3337 21.2536Z" fill="#5E6D71"/>
<path d="M28.6342 7.56478C27.4795 5.38878 25.2075 3.99945 22.7062 3.99945H9.39952C6.89819 3.99945 4.62619 5.38878 3.47152 7.56478C3.21285 8.05145 3.33552 8.65812 3.76619 9.00212L13.6662 16.9208C14.3595 17.4808 15.1995 17.7594 16.0395 17.7594C16.0449 17.7594 16.0489 17.7594 16.0529 17.7594C16.0569 17.7594 16.0622 17.7594 16.0662 17.7594C16.9062 17.7594 17.7462 17.4808 18.4395 16.9208L28.3395 9.00212C28.7702 8.65812 28.8929 8.05145 28.6342 7.56478Z" fill="#BFD9DF"/>
</svg>
