<svg width="20" height="15" viewBox="0 0 20 15" fill="none" xmlns="http://www.w3.org/2000/svg">
<mask id="mask0" mask-type="alpha" maskUnits="userSpaceOnUse" x="0" y="0" width="20" height="15">
<rect width="20" height="15" rx="0" fill="white"/>
</mask>
<g mask="url(#mask0)">
<path fill-rule="evenodd" clip-rule="evenodd" d="M0 0V15H20V0H0Z" fill="#2E42A5"/>
<path d="M-2.22705 13.9284L2.17401 15.7897L20.0998 2.02366L22.4212 -0.742266L17.7149 -1.36436L10.4034 4.56781L4.51844 8.5647L-2.22705 13.9284Z" fill="white"/>
<path d="M-1.62451 15.2325L0.617623 16.3126L21.5876 -0.999216H18.4394L-1.62451 15.2325Z" fill="#F50100"/>
<path d="M22.2271 13.9284L17.826 15.7897L-0.0997791 2.02366L-2.42124 -0.742266L2.28506 -1.36436L9.59656 4.56781L15.4816 8.5647L22.2271 13.9284Z" fill="white"/>
<path d="M22.0767 14.8643L19.8345 15.9445L10.9053 8.53236L8.25794 7.70422L-2.64483 -0.732773H0.503387L11.4 7.50397L14.2944 8.49699L22.0767 14.8643Z" fill="#F50100"/>
<mask id="path-7-inside-1" fill="white">
<path fill-rule="evenodd" clip-rule="evenodd" d="M12.361 -1.25H7.63877V5H-1.23291V10H7.63877V16.25H12.361V10H21.2671V5H12.361V-1.25Z"/>
</mask>
<path fill-rule="evenodd" clip-rule="evenodd" d="M12.361 -1.25H7.63877V5H-1.23291V10H7.63877V16.25H12.361V10H21.2671V5H12.361V-1.25Z" fill="#F50100"/>
<path d="M7.63877 -1.25V-2.5H6.38877V-1.25H7.63877ZM12.361 -1.25H13.611V-2.5H12.361V-1.25ZM7.63877 5V6.25H8.88877V5H7.63877ZM-1.23291 5V3.75H-2.48291V5H-1.23291ZM-1.23291 10H-2.48291V11.25H-1.23291V10ZM7.63877 10H8.88877V8.75H7.63877V10ZM7.63877 16.25H6.38877V17.5H7.63877V16.25ZM12.361 16.25V17.5H13.611V16.25H12.361ZM12.361 10V8.75H11.111V10H12.361ZM21.2671 10V11.25H22.5171V10H21.2671ZM21.2671 5H22.5171V3.75H21.2671V5ZM12.361 5H11.111V6.25H12.361V5ZM7.63877 0H12.361V-2.5H7.63877V0ZM8.88877 5V-1.25H6.38877V5H8.88877ZM-1.23291 6.25H7.63877V3.75H-1.23291V6.25ZM0.0170898 10V5H-2.48291V10H0.0170898ZM7.63877 8.75H-1.23291V11.25H7.63877V8.75ZM8.88877 16.25V10H6.38877V16.25H8.88877ZM12.361 15H7.63877V17.5H12.361V15ZM11.111 10V16.25H13.611V10H11.111ZM21.2671 8.75H12.361V11.25H21.2671V8.75ZM20.0171 5V10H22.5171V5H20.0171ZM12.361 6.25H21.2671V3.75H12.361V6.25ZM11.111 -1.25V5H13.611V-1.25H11.111Z" fill="white" mask="url(#path-7-inside-1)"/>
</g>
<defs>
</defs>
</svg>
