<svg xmlns="http://www.w3.org/2000/svg" viewBox="0 0 1240 40" width="1240" height="40"><path d="M0 40V0h40v40H0zm10-10v-5h15v-2.5H10v-5h20V30H10zm0-20h20v5H10v-5z" fill="#00aec2" fill-rule="evenodd"/><path d="M40 40V1.244L41.244 0H80v38.76L78.76 40H40zm10-10v-5h14.69l.31-2.5H50v-5h20v11.88l-.62.62H50zm.62-20H70v5H50l.62-5z" fill="#04adc4" fill-rule="evenodd"/><path d="M80 40V2.217L82.217 0H120v37.79L117.79 40H80zm10-10v-5h14.447l.553-2.5H90v-5h20v11.395L108.895 30H90zm1.105-20H110v5H90l1.105-5z" fill="#08adc6" fill-rule="evenodd"/><path d="M120 40V3.049L123.049 0H160v36.962L156.962 40H120zm10-10v-5h14.24l.76-2.5h-15v-5h20v10.981L148.481 30H130zm1.519-20H150v5h-20l1.519-5z" fill="#0dacc8" fill-rule="evenodd"/><path d="M160 40V3.779L163.779 0H200v36.234L196.234 40H160zm10-10v-5h14.058l.942-2.5h-15v-5h20v10.617L188.117 30H170zm1.883-20H190v5h-20l1.883-5z" fill="#11abca" fill-rule="evenodd"/><path d="M200 40V4.43L204.43 0H240v35.584L235.584 40H200zm10-10v-5h13.896L225 22.5h-15v-5h20v10.292L227.792 30H210zm2.208-20H230v5h-20l2.208-5z" fill="#15aacc" fill-rule="evenodd"/><path d="M240 40V5.016L245.016 0H280v35l-5 5h-35zm10-10v-5h13.75l1.25-2.5h-15v-5h20v10l-2.5 2.5H250zm2.5-20H270v5h-20l2.5-5z" fill="#19aace" fill-rule="evenodd"/><path d="M280 40V5.548L285.548 0H320v34.471L314.471 40H280zm10-10v-5h13.618L305 22.5h-15v-5h20v9.735L307.235 30H290zm2.765-20H310v5h-20l2.765-5z" fill="#1da9d0" fill-rule="evenodd"/><path d="M320 40V6.031L326.031 0H360v33.989L353.989 40H320zm10-10v-5h13.497L345 22.5h-15v-5h20v9.495L346.995 30H330zm3.005-20H350v5h-20l3.005-5z" fill="#22a8d2" fill-rule="evenodd"/><path d="M360 40V6.471L366.471 0H400v33.55L393.55 40H360zm10-10v-5h13.388L385 22.5h-15v-5h20v9.275L386.775 30H370zm3.225-20H390v5h-20l3.225-5z" fill="#26a7d4" fill-rule="evenodd"/><path d="M400 40V6.874L406.874 0H440v33.149L433.149 40H400zm10-10v-5h13.287L425 22.5h-15v-5h20v9.075L426.575 30H410zm3.425-20H430v5h-20l3.425-5z" fill="#2aa7d6" fill-rule="evenodd"/><path d="M440 40V7.241L447.241 0H480v32.782L472.782 40H440zm10-10v-5h13.196L465 22.5h-15v-5h20v8.891L466.391 30H450zm3.609-20H470v5h-20l3.609-5z" fill="#2ea6d8" fill-rule="evenodd"/><path d="M480 40V7.578L487.578 0H520v32.447L512.447 40H480zm10-10v-5h13.112L505 22.5h-15v-5h20v8.724L506.224 30H490zm3.776-20H510v5h-20l3.776-5z" fill="#32a5da" fill-rule="evenodd"/><path d="M520 40V7.885L527.885 0H560v32.141L552.141 40H520zm10-10v-5h13.035L545 22.5h-15v-5h20v8.571L546.071 30H530zm3.929-20H550v5h-20l3.929-5z" fill="#37a4dc" fill-rule="evenodd"/><path d="M560 40V8.165L568.165 0H600v31.862L591.862 40H560zm10-10v-5h12.965L585 22.5h-15v-5h20v8.431L585.931 30H570zm4.069-20H590v5h-20l4.069-5z" fill="#3ba4de" fill-rule="evenodd"/><path d="M600 40V8.42L608.42 0H640v31.608L631.608 40H600zm10-10v-5h12.902L625 22.5h-15v-5h20v8.304L625.804 30H610zm4.196-20H630v5h-20l4.196-5z" fill="#3fa3e1" fill-rule="evenodd"/><path d="M640 40V8.652L648.652 0H680v31.377L671.377 40H640zm10-10v-5h12.844L665 22.5h-15v-5h20v8.188L665.688 30H650zm4.312-20H670v5h-20l4.312-5z" fill="#43a2e3" fill-rule="evenodd"/><path d="M680 40V8.862L688.862 0H720v31.167L711.167 40H680zm10-10v-5h12.792L705 22.5h-15v-5h20v8.084L705.584 30H690zm4.416-20H710v5h-20l4.416-5z" fill="#47a2e5" fill-rule="evenodd"/><path d="M720 40V9.051L729.051 0H760v30.979L750.979 40H720zm10-10v-5h12.745L745 22.5h-15v-5h20v7.989L745.489 30H730zm4.511-20H750v5h-20l4.511-5z" fill="#4ca1e7" fill-rule="evenodd"/><path d="M760 40V9.22L769.22 0H800v30.81L790.81 40H760zm10-10v-5h12.702L785 22.5h-15v-5h20v7.905L785.405 30H770zm4.595-20H790v5h-20l4.595-5z" fill="#50a0e9" fill-rule="evenodd"/><path d="M800 40V9.372L809.372 0H840v30.659L830.659 40H800zm10-10v-5h12.665L825 22.5h-15v-5h20v7.83L825.33 30H810zm4.67-20H830v5h-20l4.67-5z" fill="#549feb" fill-rule="evenodd"/><path d="M840 40V9.505L849.505 0H880v30.526L870.526 40H840zm10-10v-5h12.632L865 22.5h-15v-5h20v7.763L865.263 30H850zm4.737-20H870v5h-20l4.737-5z" fill="#589fed" fill-rule="evenodd"/><path d="M880 40V9.622L889.622 0H920v30.41L910.41 40H880zm10-10v-5h12.602L905 22.5h-15v-5h20v7.705L905.205 30H890zm4.795-20H910v5h-20l4.795-5z" fill="#5c9eef" fill-rule="evenodd"/><path d="M920 40V9.722L929.722 0H960v30.31L950.31 40H920zm10-10v-5h12.577L945 22.5h-15v-5h20v7.655L945.155 30H930zm4.845-20H950v5h-20l4.845-5z" fill="#619df1" fill-rule="evenodd"/><path d="M960 40V9.808L969.808 0H1000v30.224L990.224 40H960zm10-10v-5h12.556L985 22.5h-15v-5h20v7.612L985.112 30H970zm4.888-20H990v5h-20l4.888-5z" fill="#659cf3" fill-rule="evenodd"/><path d="M1000 40V9.879L1009.879 0H1040v30.154L1030.154 40H1000zm10-10v-5h12.538l2.462-2.5h-15v-5h20v7.577L1025.077 30H1010zm4.923-20H1030v5h-20l4.923-5z" fill="#699cf5" fill-rule="evenodd"/><path d="M1040 40V9.935L1049.935 0H1080v30.097L1070.097 40H1040zm10-10v-5h12.524l2.476-2.5h-15v-5h20v7.549L1065.049 30H1050zm4.951-20H1070v5h-20l4.951-5z" fill="#6d9bf7" fill-rule="evenodd"/><path d="M1080 40V9.979L1089.979 0H1120v30.054L1110.054 40H1080zm10-10v-5h12.513l2.487-2.5h-15v-5h20v7.527L1105.027 30H1090zm4.973-20H1110v5h-20l4.973-5z" fill="#719af9" fill-rule="evenodd"/><path d="M1120 40V10.009L1130.009 0H1160v30.024L1150.024 40H1120zm10-10v-5h12.506l2.494-2.5h-15v-5h20v7.512L1145.012 30H1130zm4.988-20H1150v5h-20l4.988-5z" fill="#7699fb" fill-rule="evenodd"/><path d="M1160 40V10.027L1170.027 0H1200v30.006L1190.006 40H1160zm10-10v-5h12.501l2.499-2.5h-15v-5h20v7.503L1185.003 30H1170zm4.997-20H1190v5h-20l4.997-5z" fill="#7a99fd" fill-rule="evenodd"/><path d="M1200 40V10.033L1210.033 0H1240v30l-10 10h-30zm10-10v-5h12.5l2.5-2.5h-15v-5h20V25l-5 5h-15zm5-20h15v5h-20l5-5z" fill="#7e98ff" fill-rule="evenodd"/></svg>