<svg width="32" height="32" viewBox="0 0 32 32" fill="none" xmlns="http://www.w3.org/2000/svg">
<path d="M21.787 2.6664H10.227C5.70699 2.6664 2.66699 5.83974 2.66699 10.5597V21.4531C2.66699 26.1597 5.70699 29.3331 10.227 29.3331H21.787C26.307 29.3331 29.3337 26.1597 29.3337 21.4531V10.5597C29.3337 5.83974 26.307 2.6664 21.787 2.6664Z" fill="#5E6D71"/>
<path fill-rule="evenodd" clip-rule="evenodd" d="M10.028 14.4047C9.14666 14.4047 8.43066 15.1207 8.43066 15.9993C8.43066 16.8793 9.14666 17.5967 10.028 17.5967C10.9093 17.5967 11.6253 16.8793 11.6253 15.9993C11.6253 15.1207 10.9093 14.4047 10.028 14.4047ZM15.9998 14.4047C15.1185 14.4047 14.4025 15.1207 14.4025 15.9993C14.4025 16.8793 15.1185 17.5967 15.9998 17.5967C16.8811 17.5967 17.5971 16.8793 17.5971 15.9993C17.5971 15.1207 16.8811 14.4047 15.9998 14.4047ZM20.3755 15.9993C20.3755 15.1207 21.0915 14.4047 21.9728 14.4047C22.8542 14.4047 23.5702 15.1207 23.5702 15.9993C23.5702 16.8793 22.8542 17.5967 21.9728 17.5967C21.0915 17.5967 20.3755 16.8793 20.3755 15.9993Z" fill="#BFD9DF"/>
</svg>
