<svg width="32" height="32" viewBox="0 0 32 32" fill="none" xmlns="http://www.w3.org/2000/svg">
<path d="M29.3329 19.6032V21.4479C29.3329 21.754 29.3195 22.0628 29.2928 22.3689C28.9187 26.581 25.9929 29.3334 21.7711 29.3334H10.228C8.09042 29.3334 6.28681 28.6396 4.99088 27.3817C4.4832 26.9152 4.05568 26.3671 3.72168 25.7388C4.16256 25.2028 4.65688 24.616 5.13785 24.0278C5.95281 23.052 6.74105 22.0882 7.23537 21.4612C7.97018 20.5523 9.90738 18.1595 12.5928 19.2823C13.1405 19.5096 13.6215 19.8304 14.0624 20.1111C15.1445 20.833 15.5988 21.0469 16.3603 20.6325C17.202 20.178 17.7497 19.2823 18.3242 18.3466C18.6315 17.8507 18.9388 17.3708 19.2728 16.9297C20.729 15.0315 22.9735 14.5235 24.8439 15.6464C25.7791 16.2078 26.5807 16.9163 27.3289 17.6368C27.4892 17.7972 27.6495 17.9456 27.7965 18.0926C27.9969 18.2932 28.6649 18.9615 29.3329 19.6032Z" fill="#BFD9DF"/>
<path d="M21.7852 2.66669H10.2288C5.69972 2.66669 2.66699 5.83478 2.66699 10.5522V21.448C2.66699 23.0909 3.04107 24.5493 3.72244 25.739C4.16332 25.2029 4.65764 24.6161 5.1386 24.0266C5.95357 23.0521 6.74181 22.0883 7.23613 21.4614C7.97093 20.5524 9.90814 18.1596 12.5935 19.2825C13.1413 19.5097 13.6222 19.8305 14.0631 20.1113C15.1453 20.8331 15.5995 21.047 16.361 20.6313C17.2027 20.1781 17.7505 19.2825 18.325 18.3454C18.6323 17.8508 18.9395 17.3709 19.2735 16.9298C20.7298 15.0316 22.9743 14.5236 24.8447 15.6465C25.7799 16.208 26.5815 16.9164 27.3297 17.6369C27.49 17.7973 27.6503 17.9457 27.7973 18.0928C27.9977 18.2919 28.6657 18.9603 29.3337 19.6033V10.5522C29.3337 5.83478 26.3009 2.66669 21.7852 2.66669Z" fill="#5E6D71"/>
<path d="M15.2724 11.7289C15.2724 13.6071 13.7079 15.1711 11.8308 15.1711C9.95509 15.1711 8.39062 13.6071 8.39062 11.7289C8.39062 9.85214 9.95509 8.2868 11.8308 8.2868C13.7079 8.2868 15.2724 9.85214 15.2724 11.7289Z" fill="#BFD9DF"/>
</svg>
