<svg width="32" height="32" viewBox="0 0 32 32" fill="none" xmlns="http://www.w3.org/2000/svg">
<path d="M2.66699 14.7714C2.73366 17.8887 2.92033 23.2207 2.94699 23.8087C3.04166 25.066 3.52299 26.3367 4.27233 27.2327C5.31499 28.49 6.59899 29.0514 8.38966 29.0514C10.8643 29.0647 13.5923 29.0647 16.2417 29.0647C18.9017 29.0647 21.483 29.0647 23.663 29.0514C25.4283 29.0514 26.7523 28.4754 27.7817 27.2327C28.531 26.3367 29.0123 25.0527 29.0803 23.8087C29.107 23.314 29.2403 17.526 29.3203 14.7714H2.66699Z" fill="#5E6D71"/>
<path d="M14.9941 20.5123V22.2377C14.9941 22.7897 15.4421 23.2377 15.9941 23.2377C16.5461 23.2377 16.9941 22.7897 16.9941 22.2377V20.5123C16.9941 19.9603 16.5461 19.5123 15.9941 19.5123C15.4421 19.5123 14.9941 19.9603 14.9941 20.5123Z" fill="#BFD9DF"/>
<path fill-rule="evenodd" clip-rule="evenodd" d="M13.615 19.4086C13.4817 19.8926 13.0163 20.2019 12.5123 20.1352C9.11099 19.6606 5.86033 18.4539 3.11633 16.6419C2.83499 16.4579 2.66699 16.1432 2.66699 15.8072V11.1859C2.66699 8.3859 4.94966 6.10857 7.75633 6.10857H10.379C10.6297 4.17257 12.2697 2.66724 14.2723 2.66724H17.715C19.7163 2.66724 21.3577 4.17257 21.6083 6.10857H24.2443C27.043 6.10857 29.3203 8.3859 29.3203 11.1859V15.8072C29.3203 16.1432 29.151 16.4566 28.8723 16.6419C26.123 18.4619 22.859 19.6739 19.435 20.1472C19.3883 20.1539 19.343 20.1566 19.2977 20.1566C18.8457 20.1566 18.4417 19.8512 18.3283 19.4032C18.059 18.3419 17.095 17.5992 15.987 17.5992C14.8643 17.5992 13.911 18.3259 13.615 19.4086ZM17.7149 4.66724H14.2723C13.3749 4.66724 12.6256 5.28057 12.4016 6.10857H19.5843C19.3603 5.28057 18.6109 4.66724 17.7149 4.66724Z" fill="#BFD9DF"/>
</svg>
